<svg width="18" height="18" viewBox="0 0 18 18" fill="none" xmlns="http://www.w3.org/2000/svg">
<path d="M17.2436 16.0063L13.272 12.0347C14.2721 10.7677 14.875 9.17262 14.875 7.4375C14.875 3.33638 11.5386 0 7.4375 0C3.33638 0 0 3.33638 0 7.4375C0 11.5386 3.33638 14.875 7.4375 14.875C9.1735 14.875 10.7677 14.273 12.0347 13.272L16.0064 17.2437C16.177 17.4143 16.401 17.5 16.625 17.5C16.849 17.5 17.073 17.4143 17.2436 17.2437C17.5858 16.9015 17.5858 16.3485 17.2436 16.0063ZM1.75 7.4375C1.75 4.3015 4.3015 1.75 7.4375 1.75C10.5735 1.75 13.125 4.3015 13.125 7.4375C13.125 10.5735 10.5735 13.125 7.4375 13.125C4.3015 13.125 1.75 10.5735 1.75 7.4375Z" fill="white"/>
</svg>
