<svg aria-hidden="true" style="position: absolute; width: 0; height: 0; overflow: hidden;" version="1.1" xmlns="http://www.w3.org/2000/svg" xmlns:xlink="http://www.w3.org/1999/xlink">
<defs>
<symbol id="icon-facebook" viewBox="0 0 32 32">
<path d="M20.979 5.272h2.899v-5.049c-0.5-0.069-2.22-0.224-4.223-0.224-4.179 0-7.042 2.629-7.042 7.46v4.447h-4.612v5.644h4.612v14.201h5.654v-14.2h4.425l0.703-5.644h-5.129v-3.888c0.001-1.631 0.441-2.748 2.713-2.748z"></path>
</symbol>
<symbol id="icon-twitter" viewBox="0 0 32 32">
<path d="M32 5.987c-1.19 0.522-2.458 0.868-3.78 1.036 1.36-0.812 2.398-2.088 2.886-3.626-1.268 0.756-2.668 1.29-4.16 1.588-1.204-1.282-2.92-2.076-4.792-2.076-3.632 0-6.556 2.948-6.556 6.562 0 0.52 0.044 1.020 0.152 1.496-5.454-0.266-10.28-2.88-13.522-6.862-0.566 0.982-0.898 2.106-0.898 3.316 0 2.272 1.17 4.286 2.914 5.452-1.054-0.020-2.088-0.326-2.964-0.808 0 0.020 0 0.046 0 0.072 0 3.188 2.274 5.836 5.256 6.446-0.534 0.146-1.116 0.216-1.72 0.216-0.42 0-0.844-0.024-1.242-0.112 0.85 2.598 3.262 4.508 6.13 4.57-2.232 1.746-5.066 2.798-8.134 2.798-0.538 0-1.054-0.024-1.57-0.090 2.906 1.874 6.35 2.944 10.064 2.944 12.072 0 18.672-10 18.672-18.668 0-0.29-0.010-0.57-0.024-0.848 1.302-0.924 2.396-2.078 3.288-3.406z"></path>
</symbol>
<symbol id="icon-instagram" viewBox="0 0 32 32">
<path d="M10 0h12c5.522 0 10 4.478 10 10v12c0 5.522-4.478 10-10 10h-12c-5.522 0-10-4.478-10-10v-12c0-5.522 4.478-10 10-10zM22 29c3.86 0 7-3.14 7-7v-12c0-3.86-3.14-7-7-7h-12c-3.86 0-7 3.14-7 7v12c0 3.86 3.14 7 7 7h12z"></path>
<path d="M8 16c0-4.418 3.582-8 8-8s8 3.582 8 8c0 4.418-3.582 8-8 8s-8-3.582-8-8zM11 16c0 2.756 2.244 5 5 5s5-2.244 5-5c0-2.758-2.244-5-5-5s-5 2.242-5 5z"></path>
<path d="M25.666 7.4c0 0.589-0.477 1.066-1.066 1.066s-1.066-0.477-1.066-1.066c0-0.589 0.477-1.066 1.066-1.066s1.066 0.477 1.066 1.066z"></path>
</symbol>
<symbol id="icon-basket-icon" viewBox="0 0 32 32">
<path d="M8.291 7.792h-2.402c-0.914 0-1.69 0.67-1.822 1.575l-0.35 2.388c-0.689 4.702-0.689 9.478 0 14.18 0.333 2.27 2.164 4.026 4.446 4.262l1.006 0.104c4.469 0.464 8.974 0.464 13.444 0l1.006-0.104c2.283-0.237 4.113-1.992 4.446-4.262 0.689-4.702 0.689-9.478 0-14.18l-0.35-2.388c-0.132-0.904-0.908-1.575-1.822-1.575h-2.402v-0.192c0-3.468-2.348-6.497-5.707-7.361-1.242-0.319-2.544-0.319-3.785 0-3.359 0.864-5.707 3.892-5.707 7.361v0.192zM14.596 2.564c0.85-0.218 1.74-0.218 2.59 0 2.298 0.591 3.905 2.663 3.905 5.036v0.192h-10.4v-0.192c0-2.373 1.607-4.445 3.905-5.036zM8.291 10.192v3.6c0 0.663 0.537 1.2 1.2 1.2s1.2-0.537 1.2-1.2v-3.6h10.4v3.6c0 0.663 0.537 1.2 1.2 1.2s1.2-0.537 1.2-1.2v-3.6h1.919l0.28 1.911c0.655 4.471 0.655 9.013 0 13.484-0.173 1.184-1.128 2.1-2.319 2.223l-1.006 0.104c-4.305 0.446-8.644 0.446-12.949 0l-1.006-0.104c-1.19-0.124-2.145-1.039-2.319-2.223-0.655-4.471-0.655-9.013 0-13.484l0.28-1.911h1.919z"></path>
</symbol>
<symbol id="icon-Profile" viewBox="0 0 32 32">
<path d="M15.619 0c-3.998 0-7.238 3.241-7.238 7.238s3.241 7.238 7.238 7.238c3.998 0 7.238-3.241 7.238-7.238s-3.241-7.238-7.238-7.238zM10.667 7.238c0-2.735 2.217-4.952 4.952-4.952s4.952 2.217 4.952 4.952c0 2.735-2.217 4.952-4.952 4.952s-4.952-2.217-4.952-4.952z"></path>
<path d="M11.048 16.762c-3.998 0-7.238 3.241-7.238 7.238s3.241 7.238 7.238 7.238h9.143c3.998 0 7.238-3.241 7.238-7.238s-3.241-7.238-7.238-7.238h-9.143zM6.095 24c0-2.735 2.217-4.952 4.952-4.952h9.143c2.735 0 4.952 2.217 4.952 4.952s-2.217 4.952-4.952 4.952h-9.143c-2.735 0-4.952-2.217-4.952-4.952z"></path>
</symbol>
<symbol id="icon-search-icon" viewBox="0 0 32 32">
<path d="M30.655 28.456l-7.061-7.061c1.778-2.252 2.85-5.088 2.85-8.173 0-7.291-5.931-13.222-13.222-13.222s-13.222 5.931-13.222 13.222c0 7.291 5.931 13.222 13.222 13.222 3.086 0 5.92-1.070 8.173-2.85l7.061 7.061c0.303 0.303 0.701 0.456 1.1 0.456s0.796-0.152 1.1-0.456c0.608-0.608 0.608-1.591 0-2.2zM3.111 13.222c0-5.575 4.536-10.111 10.111-10.111s10.111 4.536 10.111 10.111c0 5.575-4.536 10.111-10.111 10.111s-10.111-4.536-10.111-10.111z"></path>
</symbol>
<symbol id="icon-star" viewBox="0 0 32 32">
<path d="M16 0l4.321 11.679 11.679 4.321-11.679 4.321-4.321 11.679-4.321-11.679-11.679-4.321 11.679-4.321 4.321-11.679z"></path>
</symbol>
<symbol id="icon-Star-reviews" viewBox="0 0 34 32">
<path fill="#c00c00" style="fill: var(--color1, #c00c00)" d="M16.168 0l3.817 11.747h12.351l-9.992 7.26 3.817 11.747-9.992-7.26-9.992 7.26 3.817-11.747-9.992-7.26h12.351l3.817-11.747z"></path>
</symbol>
</defs>
</svg>

